<mxfile host="app.diagrams.net" modified="2020-07-24T16:52:44.412Z" agent="5.0 (Windows NT 10.0; Win64; x64) AppleWebKit/537.36 (KHTML, like Gecko) Chrome/84.0.4147.89 Safari/537.36" etag="BQQnOLOibxwg8bCU6_Ir" version="13.5.3" type="github">
  <diagram id="CJ4wZZTcF6OiKm9zg4M8" name="Page-1">
    <mxGraphModel dx="1422" dy="762" grid="1" gridSize="10" guides="1" tooltips="1" connect="1" arrows="1" fold="1" page="1" pageScale="1" pageWidth="850" pageHeight="1100" math="0" shadow="0">
      <root>
        <mxCell id="0" />
        <mxCell id="1" parent="0" />
        <mxCell id="3-pnK4FRJ_MMk9-06QBn-3" value="" style="edgeStyle=orthogonalEdgeStyle;rounded=0;orthogonalLoop=1;jettySize=auto;html=1;" edge="1" parent="1" source="3-pnK4FRJ_MMk9-06QBn-1" target="3-pnK4FRJ_MMk9-06QBn-2">
          <mxGeometry relative="1" as="geometry" />
        </mxCell>
        <mxCell id="3-pnK4FRJ_MMk9-06QBn-1" value="Начало" style="ellipse;whiteSpace=wrap;html=1;aspect=fixed;" vertex="1" parent="1">
          <mxGeometry x="385" y="130" width="80" height="80" as="geometry" />
        </mxCell>
        <mxCell id="3-pnK4FRJ_MMk9-06QBn-5" value="" style="edgeStyle=orthogonalEdgeStyle;rounded=0;orthogonalLoop=1;jettySize=auto;html=1;" edge="1" parent="1" source="3-pnK4FRJ_MMk9-06QBn-2" target="3-pnK4FRJ_MMk9-06QBn-4">
          <mxGeometry relative="1" as="geometry" />
        </mxCell>
        <mxCell id="3-pnK4FRJ_MMk9-06QBn-2" value="Объявление&lt;br&gt;A,B,C" style="whiteSpace=wrap;html=1;" vertex="1" parent="1">
          <mxGeometry x="365" y="250" width="120" height="60" as="geometry" />
        </mxCell>
        <mxCell id="3-pnK4FRJ_MMk9-06QBn-7" value="True" style="edgeStyle=orthogonalEdgeStyle;rounded=0;orthogonalLoop=1;jettySize=auto;html=1;" edge="1" parent="1" source="3-pnK4FRJ_MMk9-06QBn-4" target="3-pnK4FRJ_MMk9-06QBn-6">
          <mxGeometry relative="1" as="geometry" />
        </mxCell>
        <mxCell id="3-pnK4FRJ_MMk9-06QBn-9" value="False" style="edgeStyle=orthogonalEdgeStyle;rounded=0;orthogonalLoop=1;jettySize=auto;html=1;entryX=0.5;entryY=0;entryDx=0;entryDy=0;" edge="1" parent="1" source="3-pnK4FRJ_MMk9-06QBn-4" target="3-pnK4FRJ_MMk9-06QBn-8">
          <mxGeometry relative="1" as="geometry">
            <mxPoint x="570" y="420" as="targetPoint" />
            <Array as="points">
              <mxPoint x="560" y="380" />
              <mxPoint x="560" y="430" />
            </Array>
          </mxGeometry>
        </mxCell>
        <mxCell id="3-pnK4FRJ_MMk9-06QBn-4" value="A&amp;gt;B" style="rhombus;whiteSpace=wrap;html=1;" vertex="1" parent="1">
          <mxGeometry x="385" y="340" width="80" height="80" as="geometry" />
        </mxCell>
        <mxCell id="3-pnK4FRJ_MMk9-06QBn-19" style="edgeStyle=orthogonalEdgeStyle;rounded=0;orthogonalLoop=1;jettySize=auto;html=1;entryX=0.5;entryY=0;entryDx=0;entryDy=0;" edge="1" parent="1" source="3-pnK4FRJ_MMk9-06QBn-6" target="3-pnK4FRJ_MMk9-06QBn-16">
          <mxGeometry relative="1" as="geometry" />
        </mxCell>
        <mxCell id="3-pnK4FRJ_MMk9-06QBn-6" value="max = A" style="whiteSpace=wrap;html=1;" vertex="1" parent="1">
          <mxGeometry x="240" y="430" width="120" height="60" as="geometry" />
        </mxCell>
        <mxCell id="3-pnK4FRJ_MMk9-06QBn-20" style="edgeStyle=orthogonalEdgeStyle;rounded=0;orthogonalLoop=1;jettySize=auto;html=1;" edge="1" parent="1" source="3-pnK4FRJ_MMk9-06QBn-8">
          <mxGeometry relative="1" as="geometry">
            <mxPoint x="425" y="510" as="targetPoint" />
          </mxGeometry>
        </mxCell>
        <mxCell id="3-pnK4FRJ_MMk9-06QBn-8" value="max = B" style="whiteSpace=wrap;html=1;" vertex="1" parent="1">
          <mxGeometry x="510" y="430" width="120" height="60" as="geometry" />
        </mxCell>
        <mxCell id="3-pnK4FRJ_MMk9-06QBn-14" value="True" style="edgeStyle=orthogonalEdgeStyle;rounded=0;orthogonalLoop=1;jettySize=auto;html=1;" edge="1" parent="1" source="3-pnK4FRJ_MMk9-06QBn-16">
          <mxGeometry relative="1" as="geometry">
            <mxPoint x="300" y="610" as="targetPoint" />
          </mxGeometry>
        </mxCell>
        <mxCell id="3-pnK4FRJ_MMk9-06QBn-15" value="False" style="edgeStyle=orthogonalEdgeStyle;rounded=0;orthogonalLoop=1;jettySize=auto;html=1;" edge="1" parent="1" source="3-pnK4FRJ_MMk9-06QBn-16">
          <mxGeometry relative="1" as="geometry">
            <Array as="points">
              <mxPoint x="425" y="620" />
              <mxPoint x="425" y="620" />
            </Array>
            <mxPoint x="425" y="680" as="targetPoint" />
          </mxGeometry>
        </mxCell>
        <mxCell id="3-pnK4FRJ_MMk9-06QBn-16" value="A&amp;gt;B" style="rhombus;whiteSpace=wrap;html=1;" vertex="1" parent="1">
          <mxGeometry x="385" y="490" width="80" height="80" as="geometry" />
        </mxCell>
        <mxCell id="3-pnK4FRJ_MMk9-06QBn-23" style="edgeStyle=orthogonalEdgeStyle;rounded=0;orthogonalLoop=1;jettySize=auto;html=1;exitX=1;exitY=0.5;exitDx=0;exitDy=0;entryX=0.5;entryY=0;entryDx=0;entryDy=0;" edge="1" parent="1" source="3-pnK4FRJ_MMk9-06QBn-21" target="3-pnK4FRJ_MMk9-06QBn-22">
          <mxGeometry relative="1" as="geometry" />
        </mxCell>
        <mxCell id="3-pnK4FRJ_MMk9-06QBn-21" value="max = C" style="whiteSpace=wrap;html=1;" vertex="1" parent="1">
          <mxGeometry x="240" y="560" width="120" height="60" as="geometry" />
        </mxCell>
        <mxCell id="3-pnK4FRJ_MMk9-06QBn-25" value="" style="edgeStyle=orthogonalEdgeStyle;rounded=0;orthogonalLoop=1;jettySize=auto;html=1;" edge="1" parent="1" source="3-pnK4FRJ_MMk9-06QBn-22" target="3-pnK4FRJ_MMk9-06QBn-24">
          <mxGeometry relative="1" as="geometry" />
        </mxCell>
        <mxCell id="3-pnK4FRJ_MMk9-06QBn-22" value="max = C" style="whiteSpace=wrap;html=1;" vertex="1" parent="1">
          <mxGeometry x="365" y="640" width="120" height="60" as="geometry" />
        </mxCell>
        <mxCell id="3-pnK4FRJ_MMk9-06QBn-27" value="" style="edgeStyle=orthogonalEdgeStyle;rounded=0;orthogonalLoop=1;jettySize=auto;html=1;" edge="1" parent="1" source="3-pnK4FRJ_MMk9-06QBn-24" target="3-pnK4FRJ_MMk9-06QBn-26">
          <mxGeometry relative="1" as="geometry" />
        </mxCell>
        <mxCell id="3-pnK4FRJ_MMk9-06QBn-24" value="Напечатать max" style="whiteSpace=wrap;html=1;" vertex="1" parent="1">
          <mxGeometry x="365" y="730" width="120" height="60" as="geometry" />
        </mxCell>
        <mxCell id="3-pnK4FRJ_MMk9-06QBn-26" value="Конец" style="ellipse;whiteSpace=wrap;html=1;" vertex="1" parent="1">
          <mxGeometry x="365" y="820" width="120" height="80" as="geometry" />
        </mxCell>
      </root>
    </mxGraphModel>
  </diagram>
</mxfile>
